<?xml version="1.0" standalone="no"?>
<!DOCTYPE svg PUBLIC "-//W3C//DTD SVG 20010904//EN"
 "http://www.w3.org/TR/2001/REC-SVG-20010904/DTD/svg10.dtd">
<svg version="1.0" xmlns="http://www.w3.org/2000/svg"
 width="1792.000000pt" height="1792.000000pt" viewBox="0 0 1792.000000 1792.000000"
 preserveAspectRatio="xMidYMid meet">
<metadata>
Created by potrace 1.11, written by Peter Selinger 2001-2013
</metadata>
<g transform="translate(0.000000,1792.000000) scale(0.100000,-0.100000)"
fill="#000000" stroke="none">
<path d="M439 15991 c-62 -12 -123 -57 -242 -175 -131 -131 -172 -185 -187
-247 -6 -29 -9 -548 -7 -1514 l2 -1470 29 -53 c48 -86 281 -314 361 -353 26
-12 1144 -14 8540 -16 5690 -2 8524 1 8554 8 24 5 63 23 88 40 72 50 275 261
308 320 l30 54 0 1490 c0 1642 5 1518 -64 1605 -64 81 -251 257 -304 286 l-52
29 -8510 1 c-4680 1 -8526 -1 -8546 -5z m16201 -1911 l0 -640 -1920 0 -1920 0
0 640 0 640 1920 0 1920 0 0 -640z"/>
<path d="M425 10866 c-22 -7 -54 -20 -71 -29 -50 -26 -293 -275 -322 -331
l-27 -51 0 -1495 0 -1495 29 -52 c29 -53 205 -240 286 -304 25 -20 61 -42 80
-50 30 -12 1228 -14 8565 -14 l8530 0 54 30 c59 33 270 236 320 308 17 25 35
64 41 88 6 29 9 547 7 1514 l-2 1470 -29 52 c-47 86 -282 315 -361 354 -26 12
-1144 14 -8545 16 -6843 1 -8523 -1 -8555 -11z m16215 -1906 l0 -640 -5120 0
-5120 0 0 640 0 640 5120 0 5120 0 0 -640z"/>
<path d="M427 5749 c-21 -5 -59 -23 -83 -40 -73 -50 -276 -261 -309 -320 l-30
-54 0 -1490 c0 -1641 -5 -1518 64 -1605 65 -82 250 -256 303 -286 l53 -29
8535 0 8535 0 51 27 c75 40 310 278 343 348 l26 55 0 1485 c0 1636 5 1513 -64
1600 -65 82 -250 256 -303 286 l-53 29 -8515 2 c-5013 0 -8531 -3 -8553 -8z
m16213 -1909 l0 -640 -3200 0 -3200 0 0 640 0 640 3200 0 3200 0 0 -640z"/>
</g>
</svg>
