<?xml version="1.0" encoding="UTF-8"?>
<!DOCTYPE svg PUBLIC "-//W3C//DTD SVG 1.1//EN" "http://www.w3.org/Graphics/SVG/1.1/DTD/svg11.dtd">
<svg version="1.1" xmlns="http://www.w3.org/2000/svg" xmlns:xlink="http://www.w3.org/1999/xlink" width="1792" height="1792"  xml:space="preserve" id="datastackblue">
    <!-- Generated by PaintCode (www.paintcodeapp.com) -->
    <path id="datastackblue-bezier" stroke="none" fill="rgb(47, 64, 80)" d="M 1024,1472 L 1664,1472 1664,1344 1024,1344 1024,1472 Z M 640,960 L 1664,960 1664,832 640,832 640,960 Z M 1280,448 L 1664,448 1664,320 1280,320 1280,448 Z M 1792,1280 L 1792,1536 C 1792,1562 1792,1562 1773,1581 1754,1600 1754,1600 1728,1600 L 64,1600 C 38,1600 38,1600 19,1581 0,1562 0,1562 0,1536 L 0,1280 C 0,1254 0,1254 19,1235 38,1216 38,1216 64,1216 L 1728,1216 C 1754,1216 1754,1216 1773,1235 1792,1254 1792,1254 1792,1280 Z M 1792,768 L 1792,1024 C 1792,1050 1792,1050 1773,1069 1754,1088 1754,1088 1728,1088 L 64,1088 C 38,1088 38,1088 19,1069 0,1050 0,1050 0,1024 L 0,768 C 0,742 0,742 19,723 38,704 38,704 64,704 L 1728,704 C 1754,704 1754,704 1773,723 1792,742 1792,742 1792,768 Z M 1792,256 L 1792,512 C 1792,538 1792,538 1773,557 1754,576 1754,576 1728,576 L 64,576 C 38,576 38,576 19,557 0,538 0,538 0,512 L 0,256 C 0,230 0,230 19,211 38,192 38,192 64,192 L 1728,192 C 1754,192 1754,192 1773,211 1792,230 1792,230 1792,256 Z M 1792,256" />
</svg>
