<?xml version="1.0" encoding="UTF-8"?>
<!DOCTYPE svg PUBLIC "-//W3C//DTD SVG 1.1//EN" "http://www.w3.org/Graphics/SVG/1.1/DTD/svg11.dtd">
<svg version="1.1" xmlns="http://www.w3.org/2000/svg" xmlns:xlink="http://www.w3.org/1999/xlink" width="1792" height="1792"  xml:space="preserve" id="unknownCanvas">
    <!-- Generated by PaintCode (www.paintcodeapp.com) -->
    <path id="unknownCanvas-bezier" stroke="none" fill="rgb(255, 255, 255)" d="M 1024,1408 L 1664,1408 1664,1280 1024,1280 1024,1408 Z M 640,896 L 1664,896 1664,768 640,768 640,896 Z M 1280,384 L 1664,384 1664,256 1280,256 1280,384 Z M 1792,1216 L 1792,1472 C 1792,1498 1792,1498 1773,1517 1754,1536 1754,1536 1728,1536 L 64,1536 C 38,1536 38,1536 19,1517 0,1498 0,1498 0,1472 L 0,1216 C 0,1190 0,1190 19,1171 38,1152 38,1152 64,1152 L 1728,1152 C 1754,1152 1754,1152 1773,1171 1792,1190 1792,1190 1792,1216 Z M 1792,704 L 1792,960 C 1792,986 1792,986 1773,1005 1754,1024 1754,1024 1728,1024 L 64,1024 C 38,1024 38,1024 19,1005 0,986 0,986 0,960 L 0,704 C 0,678 0,678 19,659 38,640 38,640 64,640 L 1728,640 C 1754,640 1754,640 1773,659 1792,678 1792,678 1792,704 Z M 1792,192 L 1792,448 C 1792,474 1792,474 1773,493 1754,512 1754,512 1728,512 L 64,512 C 38,512 38,512 19,493 0,474 0,474 0,448 L 0,192 C 0,166 0,166 19,147 38,128 38,128 64,128 L 1728,128 C 1754,128 1754,128 1773,147 1792,166 1792,166 1792,192 Z M 1792,192" />
</svg>
